<svg xmlns="http://www.w3.org/2000/svg" width="1280" height="800" viewBox="0 0 1280 800"><title>Blueprint Field Notes</title><rect x="0" y="0" width="1280" height="800" rx="0" fill="#0b1227" /><rect x="245" y="135" width="790" height="545" rx="8" fill="#173755" /><rect x="280" y="168" width="56" height="8" rx="4" fill="#ff659d" /><text x="280" y="223" font-family="system-ui,sans-serif" font-size="24" fill="#b8def7" font-weight="700">BLUEPRINT FIELD NOTES</text><path d="M280 255v340" fill="none" stroke="#315876" stroke-width="1" stroke-linecap="round" stroke-linejoin="round"/><path d="M310 255v340" fill="none" stroke="#315876" stroke-width="1" stroke-linecap="round" stroke-linejoin="round"/><path d="M340 255v340" fill="none" stroke="#315876" stroke-width="1" stroke-linecap="round" stroke-linejoin="round"/><path d="M370 255v340" fill="none" stroke="#315876" stroke-width="1" stroke-linecap="round" stroke-linejoin="round"/><path d="M400 255v340" fill="none" stroke="#315876" stroke-width="1" stroke-linecap="round" stroke-linejoin="round"/><path d="M430 255v340" fill="none" stroke="#315876" stroke-width="1" stroke-linecap="round" stroke-linejoin="round"/><path d="M460 255v340" fill="none" stroke="#315876" stroke-width="1" stroke-linecap="round" stroke-linejoin="round"/><path d="M490 255v340" fill="none" stroke="#315876" stroke-width="1" stroke-linecap="round" stroke-linejoin="round"/><path d="M520 255v340" fill="none" stroke="#315876" stroke-width="1" stroke-linecap="round" stroke-linejoin="round"/><path d="M550 255v340" fill="none" stroke="#315876" stroke-width="1" stroke-linecap="round" stroke-linejoin="round"/><path d="M580 255v340" fill="none" stroke="#315876" stroke-width="1" stroke-linecap="round" stroke-linejoin="round"/><path d="M610 255v340" fill="none" stroke="#315876" stroke-width="1" stroke-linecap="round" stroke-linejoin="round"/><path d="M640 255v340" fill="none" stroke="#315876" stroke-width="1" stroke-linecap="round" stroke-linejoin="round"/><path d="M670 255v340" fill="none" stroke="#315876" stroke-width="1" stroke-linecap="round" stroke-linejoin="round"/><path d="M700 255v340" fill="none" stroke="#315876" stroke-width="1" stroke-linecap="round" stroke-linejoin="round"/><path d="M730 255v340" fill="none" stroke="#315876" stroke-width="1" stroke-linecap="round" stroke-linejoin="round"/><path d="M760 255v340" fill="none" stroke="#315876" stroke-width="1" stroke-linecap="round" stroke-linejoin="round"/><path d="M790 255v340" fill="none" stroke="#315876" stroke-width="1" stroke-linecap="round" stroke-linejoin="round"/><path d="M820 255v340" fill="none" stroke="#315876" stroke-width="1" stroke-linecap="round" stroke-linejoin="round"/><path d="M850 255v340" fill="none" stroke="#315876" stroke-width="1" stroke-linecap="round" stroke-linejoin="round"/><path d="M880 255v340" fill="none" stroke="#315876" stroke-width="1" stroke-linecap="round" stroke-linejoin="round"/><path d="M910 255v340" fill="none" stroke="#315876" stroke-width="1" stroke-linecap="round" stroke-linejoin="round"/><path d="M940 255v340" fill="none" stroke="#315876" stroke-width="1" stroke-linecap="round" stroke-linejoin="round"/><path d="M970 255v340" fill="none" stroke="#315876" stroke-width="1" stroke-linecap="round" stroke-linejoin="round"/><path d="M280 255h690" fill="none" stroke="#315876" stroke-width="1" stroke-linecap="round" stroke-linejoin="round"/><path d="M280 285h690" fill="none" stroke="#315876" stroke-width="1" stroke-linecap="round" stroke-linejoin="round"/><path d="M280 315h690" fill="none" stroke="#315876" stroke-width="1" stroke-linecap="round" stroke-linejoin="round"/><path d="M280 345h690" fill="none" stroke="#315876" stroke-width="1" stroke-linecap="round" stroke-linejoin="round"/><path d="M280 375h690" fill="none" stroke="#315876" stroke-width="1" stroke-linecap="round" stroke-linejoin="round"/><path d="M280 405h690" fill="none" stroke="#315876" stroke-width="1" stroke-linecap="round" stroke-linejoin="round"/><path d="M280 435h690" fill="none" stroke="#315876" stroke-width="1" stroke-linecap="round" stroke-linejoin="round"/><path d="M280 465h690" fill="none" stroke="#315876" stroke-width="1" stroke-linecap="round" stroke-linejoin="round"/><path d="M280 495h690" fill="none" stroke="#315876" stroke-width="1" stroke-linecap="round" stroke-linejoin="round"/><path d="M280 525h690" fill="none" stroke="#315876" stroke-width="1" stroke-linecap="round" stroke-linejoin="round"/><path d="M280 555h690" fill="none" stroke="#315876" stroke-width="1" stroke-linecap="round" stroke-linejoin="round"/><path d="M280 585h690" fill="none" stroke="#315876" stroke-width="1" stroke-linecap="round" stroke-linejoin="round"/><path d="M280 615h690" fill="none" stroke="#315876" stroke-width="1" stroke-linecap="round" stroke-linejoin="round"/><path d="M370 590V320h210v110h260v160Zm0-170h210M700 430v160" fill="none" stroke="#ff659d" stroke-width="5" stroke-linecap="round" stroke-linejoin="round"/><path d="M340 610h530M350 300v280" fill="none" stroke="#b8def7" stroke-width="2" stroke-linecap="round" stroke-linejoin="round"/><text x="560" y="646" font-family="system-ui,sans-serif" font-size="18" fill="#b8def7" >DIMENSIONS / 01:100</text><rect x="0" y="0" width="1280" height="95" rx="0" fill="#101a30" /><text x="42" y="57" font-family="system-ui,sans-serif" font-size="30" fill="#edfaff" font-weight="700" letter-spacing="2">BLUEPRINT FIELD NOTES</text><text x="44" y="756" font-family="system-ui,sans-serif" font-size="18" fill="#ff659d" letter-spacing="4">DOCUMENT STUDIES</text><text x="1120" y="756" font-family="system-ui,sans-serif" font-size="18" fill="#90a8c2" >87 / 96</text></svg>