<svg xmlns="http://www.w3.org/2000/svg" width="1280" height="800" viewBox="0 0 1280 800"><title>Data Table Design Study</title><rect x="0" y="0" width="1280" height="800" rx="0" fill="#0b1227" /><rect x="245" y="135" width="790" height="545" rx="8" fill="#edf0e8" /><rect x="280" y="168" width="56" height="8" rx="4" fill="#ae95ff" /><text x="280" y="223" font-family="system-ui,sans-serif" font-size="24" fill="#29465b" font-weight="700">DATA TABLE DESIGN STUDY</text><rect x="280" y="260" width="138" height="30" rx="3" fill="#29465b" /><rect x="424" y="260" width="138" height="30" rx="3" fill="#29465b" /><rect x="568" y="260" width="138" height="30" rx="3" fill="#29465b" /><rect x="712" y="260" width="138" height="30" rx="3" fill="#29465b" /><rect x="856" y="260" width="138" height="30" rx="3" fill="#29465b" /><rect x="280" y="296" width="138" height="30" rx="3" fill="#d8e0d8" /><text x="288" y="316" font-family="system-ui,sans-serif" font-size="14" fill="#29465b" >184</text><rect x="424" y="296" width="138" height="30" rx="3" fill="#d8e0d8" /><text x="432" y="316" font-family="system-ui,sans-serif" font-size="14" fill="#29465b" >276</text><rect x="568" y="296" width="138" height="30" rx="3" fill="#d8e0d8" /><text x="576" y="316" font-family="system-ui,sans-serif" font-size="14" fill="#29465b" >368</text><rect x="712" y="296" width="138" height="30" rx="3" fill="#d8e0d8" /><text x="720" y="316" font-family="system-ui,sans-serif" font-size="14" fill="#29465b" >460</text><rect x="856" y="296" width="138" height="30" rx="3" fill="#d8e0d8" /><text x="864" y="316" font-family="system-ui,sans-serif" font-size="14" fill="#29465b" >552</text><rect x="280" y="332" width="138" height="30" rx="3" fill="#d8e0d8" /><text x="288" y="352" font-family="system-ui,sans-serif" font-size="14" fill="#29465b" >186</text><rect x="424" y="332" width="138" height="30" rx="3" fill="#d8e0d8" /><text x="432" y="352" font-family="system-ui,sans-serif" font-size="14" fill="#29465b" >279</text><rect x="568" y="332" width="138" height="30" rx="3" fill="#d8e0d8" /><text x="576" y="352" font-family="system-ui,sans-serif" font-size="14" fill="#29465b" >372</text><rect x="712" y="332" width="138" height="30" rx="3" fill="#d8e0d8" /><text x="720" y="352" font-family="system-ui,sans-serif" font-size="14" fill="#29465b" >465</text><rect x="856" y="332" width="138" height="30" rx="3" fill="#d8e0d8" /><text x="864" y="352" font-family="system-ui,sans-serif" font-size="14" fill="#29465b" >558</text><rect x="280" y="368" width="138" height="30" rx="3" fill="#d8e0d8" /><text x="288" y="388" font-family="system-ui,sans-serif" font-size="14" fill="#29465b" >188</text><rect x="424" y="368" width="138" height="30" rx="3" fill="#d8e0d8" /><text x="432" y="388" font-family="system-ui,sans-serif" font-size="14" fill="#29465b" >282</text><rect x="568" y="368" width="138" height="30" rx="3" fill="#d8e0d8" /><text x="576" y="388" font-family="system-ui,sans-serif" font-size="14" fill="#29465b" >376</text><rect x="712" y="368" width="138" height="30" rx="3" fill="#d8e0d8" /><text x="720" y="388" font-family="system-ui,sans-serif" font-size="14" fill="#29465b" >470</text><rect x="856" y="368" width="138" height="30" rx="3" fill="#d8e0d8" /><text x="864" y="388" font-family="system-ui,sans-serif" font-size="14" fill="#29465b" >564</text><rect x="280" y="404" width="138" height="30" rx="3" fill="#d8e0d8" /><text x="288" y="424" font-family="system-ui,sans-serif" font-size="14" fill="#29465b" >190</text><rect x="424" y="404" width="138" height="30" rx="3" fill="#d8e0d8" /><text x="432" y="424" font-family="system-ui,sans-serif" font-size="14" fill="#29465b" >285</text><rect x="568" y="404" width="138" height="30" rx="3" fill="#d8e0d8" /><text x="576" y="424" font-family="system-ui,sans-serif" font-size="14" fill="#29465b" >380</text><rect x="712" y="404" width="138" height="30" rx="3" fill="#d8e0d8" /><text x="720" y="424" font-family="system-ui,sans-serif" font-size="14" fill="#29465b" >475</text><rect x="856" y="404" width="138" height="30" rx="3" fill="#d8e0d8" /><text x="864" y="424" font-family="system-ui,sans-serif" font-size="14" fill="#29465b" >570</text><rect x="280" y="440" width="138" height="30" rx="3" fill="#d8e0d8" /><text x="288" y="460" font-family="system-ui,sans-serif" font-size="14" fill="#29465b" >192</text><rect x="424" y="440" width="138" height="30" rx="3" fill="#d8e0d8" /><text x="432" y="460" font-family="system-ui,sans-serif" font-size="14" fill="#29465b" >288</text><rect x="568" y="440" width="138" height="30" rx="3" fill="#d8e0d8" /><text x="576" y="460" font-family="system-ui,sans-serif" font-size="14" fill="#29465b" >384</text><rect x="712" y="440" width="138" height="30" rx="3" fill="#d8e0d8" /><text x="720" y="460" font-family="system-ui,sans-serif" font-size="14" fill="#29465b" >480</text><rect x="856" y="440" width="138" height="30" rx="3" fill="#d8e0d8" /><text x="864" y="460" font-family="system-ui,sans-serif" font-size="14" fill="#29465b" >576</text><rect x="280" y="476" width="138" height="30" rx="3" fill="#d8e0d8" /><text x="288" y="496" font-family="system-ui,sans-serif" font-size="14" fill="#29465b" >194</text><rect x="424" y="476" width="138" height="30" rx="3" fill="#d8e0d8" /><text x="432" y="496" font-family="system-ui,sans-serif" font-size="14" fill="#29465b" >291</text><rect x="568" y="476" width="138" height="30" rx="3" fill="#d8e0d8" /><text x="576" y="496" font-family="system-ui,sans-serif" font-size="14" fill="#29465b" >388</text><rect x="712" y="476" width="138" height="30" rx="3" fill="#d8e0d8" /><text x="720" y="496" font-family="system-ui,sans-serif" font-size="14" fill="#29465b" >485</text><rect x="856" y="476" width="138" height="30" rx="3" fill="#d8e0d8" /><text x="864" y="496" font-family="system-ui,sans-serif" font-size="14" fill="#29465b" >582</text><rect x="280" y="512" width="138" height="30" rx="3" fill="#d8e0d8" /><text x="288" y="532" font-family="system-ui,sans-serif" font-size="14" fill="#29465b" >196</text><rect x="424" y="512" width="138" height="30" rx="3" fill="#d8e0d8" /><text x="432" y="532" font-family="system-ui,sans-serif" font-size="14" fill="#29465b" >294</text><rect x="568" y="512" width="138" height="30" rx="3" fill="#d8e0d8" /><text x="576" y="532" font-family="system-ui,sans-serif" font-size="14" fill="#29465b" >392</text><rect x="712" y="512" width="138" height="30" rx="3" fill="#d8e0d8" /><text x="720" y="532" font-family="system-ui,sans-serif" font-size="14" fill="#29465b" >490</text><rect x="856" y="512" width="138" height="30" rx="3" fill="#d8e0d8" /><text x="864" y="532" font-family="system-ui,sans-serif" font-size="14" fill="#29465b" >588</text><rect x="280" y="548" width="138" height="30" rx="3" fill="#d8e0d8" /><text x="288" y="568" font-family="system-ui,sans-serif" font-size="14" fill="#29465b" >198</text><rect x="424" y="548" width="138" height="30" rx="3" fill="#d8e0d8" /><text x="432" y="568" font-family="system-ui,sans-serif" font-size="14" fill="#29465b" >297</text><rect x="568" y="548" width="138" height="30" rx="3" fill="#d8e0d8" /><text x="576" y="568" font-family="system-ui,sans-serif" font-size="14" fill="#29465b" >396</text><rect x="712" y="548" width="138" height="30" rx="3" fill="#d8e0d8" /><text x="720" y="568" font-family="system-ui,sans-serif" font-size="14" fill="#29465b" >495</text><rect x="856" y="548" width="138" height="30" rx="3" fill="#d8e0d8" /><text x="864" y="568" font-family="system-ui,sans-serif" font-size="14" fill="#29465b" >594</text><rect x="0" y="0" width="1280" height="95" rx="0" fill="#101a30" /><text x="42" y="57" font-family="system-ui,sans-serif" font-size="30" fill="#edfaff" font-weight="700" letter-spacing="2">DATA TABLE DESIGN STUDY</text><text x="44" y="756" font-family="system-ui,sans-serif" font-size="18" fill="#ae95ff" letter-spacing="4">DOCUMENT STUDIES</text><text x="1120" y="756" font-family="system-ui,sans-serif" font-size="18" fill="#90a8c2" >89 / 96</text></svg>