<svg xmlns="http://www.w3.org/2000/svg" width="1280" height="800" viewBox="0 0 1280 800"><title>Industrial Automation Model</title><rect x="0" y="0" width="1280" height="800" rx="0" fill="#0b1227" /><path d="M80 600l170-60" fill="none" stroke="#35475c" stroke-width="3" stroke-linecap="round" stroke-linejoin="round"/><path d="M170 600l170-60" fill="none" stroke="#35475c" stroke-width="3" stroke-linecap="round" stroke-linejoin="round"/><path d="M260 600l170-60" fill="none" stroke="#35475c" stroke-width="3" stroke-linecap="round" stroke-linejoin="round"/><path d="M350 600l170-60" fill="none" stroke="#35475c" stroke-width="3" stroke-linecap="round" stroke-linejoin="round"/><path d="M440 600l170-60" fill="none" stroke="#35475c" stroke-width="3" stroke-linecap="round" stroke-linejoin="round"/><path d="M530 600l170-60" fill="none" stroke="#35475c" stroke-width="3" stroke-linecap="round" stroke-linejoin="round"/><path d="M620 600l170-60" fill="none" stroke="#35475c" stroke-width="3" stroke-linecap="round" stroke-linejoin="round"/><path d="M710 600l170-60" fill="none" stroke="#35475c" stroke-width="3" stroke-linecap="round" stroke-linejoin="round"/><path d="M800 600l170-60" fill="none" stroke="#35475c" stroke-width="3" stroke-linecap="round" stroke-linejoin="round"/><path d="M890 600l170-60" fill="none" stroke="#35475c" stroke-width="3" stroke-linecap="round" stroke-linejoin="round"/><path d="M980 600l170-60" fill="none" stroke="#35475c" stroke-width="3" stroke-linecap="round" stroke-linejoin="round"/><path d="M1070 600l170-60" fill="none" stroke="#35475c" stroke-width="3" stroke-linecap="round" stroke-linejoin="round"/><path d="M1160 600l170-60" fill="none" stroke="#35475c" stroke-width="3" stroke-linecap="round" stroke-linejoin="round"/><path d="M100 600h1060l-80 100H30Z" fill="#233955" stroke="none" stroke-width="1" stroke-linecap="round" stroke-linejoin="round"/><rect x="140" y="520" width="155" height="45" rx="12" fill="#4e6585" /><path d="M200 510V380l120-125 65 100" fill="none" stroke="#ff659d" stroke-width="42" stroke-linecap="round" stroke-linejoin="round"/><circle cx="200" cy="400" r="29" fill="#ffd064" /><circle cx="200" cy="400" r="13" fill="#233955" /><circle cx="320" cy="255" r="29" fill="#ffd064" /><circle cx="320" cy="255" r="13" fill="#233955" /><circle cx="385" cy="355" r="29" fill="#ffd064" /><circle cx="385" cy="355" r="13" fill="#233955" /><path d="M370 372v55m30-55v55" fill="none" stroke="#e2eef6" stroke-width="12" stroke-linecap="round" stroke-linejoin="round"/><rect x="335" y="469" width="100" height="65" rx="6" fill="#ffd064" /><rect x="510" y="520" width="155" height="45" rx="12" fill="#4e6585" /><path d="M570 510V380l120-125 65 100" fill="none" stroke="#ff659d" stroke-width="42" stroke-linecap="round" stroke-linejoin="round"/><circle cx="570" cy="400" r="29" fill="#ffd064" /><circle cx="570" cy="400" r="13" fill="#233955" /><circle cx="690" cy="255" r="29" fill="#ffd064" /><circle cx="690" cy="255" r="13" fill="#233955" /><circle cx="755" cy="355" r="29" fill="#ffd064" /><circle cx="755" cy="355" r="13" fill="#233955" /><path d="M740 372v55m30-55v55" fill="none" stroke="#e2eef6" stroke-width="12" stroke-linecap="round" stroke-linejoin="round"/><rect x="705" y="469" width="100" height="65" rx="6" fill="#ffd064" /><rect x="880" y="520" width="155" height="45" rx="12" fill="#4e6585" /><path d="M940 510V380l120-125 65 100" fill="none" stroke="#ff659d" stroke-width="42" stroke-linecap="round" stroke-linejoin="round"/><circle cx="940" cy="400" r="29" fill="#ffd064" /><circle cx="940" cy="400" r="13" fill="#233955" /><circle cx="1060" cy="255" r="29" fill="#ffd064" /><circle cx="1060" cy="255" r="13" fill="#233955" /><circle cx="1125" cy="355" r="29" fill="#ffd064" /><circle cx="1125" cy="355" r="13" fill="#233955" /><path d="M1110 372v55m30-55v55" fill="none" stroke="#e2eef6" stroke-width="12" stroke-linecap="round" stroke-linejoin="round"/><rect x="1075" y="469" width="100" height="65" rx="6" fill="#ffd064" /><rect x="0" y="0" width="1280" height="95" rx="0" fill="#101a30" /><text x="42" y="57" font-family="system-ui,sans-serif" font-size="30" fill="#edfaff" font-weight="700" letter-spacing="2">INDUSTRIAL AUTOMATION MODEL</text><text x="44" y="756" font-family="system-ui,sans-serif" font-size="18" fill="#ff659d" letter-spacing="4">CREATIVE &amp; TECHNICAL PROJECTS</text><text x="1120" y="756" font-family="system-ui,sans-serif" font-size="18" fill="#90a8c2" >07 / 40</text></svg>