<svg xmlns="http://www.w3.org/2000/svg" width="1280" height="800" viewBox="0 0 1280 800"><title>Neural Network Atlas</title><rect x="0" y="0" width="1280" height="800" rx="0" fill="#0b1227" /><path d="M180 170L410 170" fill="none" stroke="#314366" stroke-width="1.4" stroke-linecap="round" stroke-linejoin="round"/><path d="M180 170L410 253" fill="none" stroke="#314366" stroke-width="1.4" stroke-linecap="round" stroke-linejoin="round"/><path d="M180 170L410 336" fill="none" stroke="#314366" stroke-width="1.4" stroke-linecap="round" stroke-linejoin="round"/><path d="M180 170L410 419" fill="none" stroke="#314366" stroke-width="1.4" stroke-linecap="round" stroke-linejoin="round"/><path d="M180 170L410 502" fill="none" stroke="#314366" stroke-width="1.4" stroke-linecap="round" stroke-linejoin="round"/><path d="M180 170L410 585" fill="none" stroke="#314366" stroke-width="1.4" stroke-linecap="round" stroke-linejoin="round"/><circle cx="180" cy="170" r="18" fill="#fd81ba" /><circle cx="180" cy="170" r="7" fill="#102039" /><path d="M180 253L410 170" fill="none" stroke="#314366" stroke-width="1.4" stroke-linecap="round" stroke-linejoin="round"/><path d="M180 253L410 253" fill="none" stroke="#314366" stroke-width="1.4" stroke-linecap="round" stroke-linejoin="round"/><path d="M180 253L410 336" fill="none" stroke="#314366" stroke-width="1.4" stroke-linecap="round" stroke-linejoin="round"/><path d="M180 253L410 419" fill="none" stroke="#314366" stroke-width="1.4" stroke-linecap="round" stroke-linejoin="round"/><path d="M180 253L410 502" fill="none" stroke="#314366" stroke-width="1.4" stroke-linecap="round" stroke-linejoin="round"/><path d="M180 253L410 585" fill="none" stroke="#314366" stroke-width="1.4" stroke-linecap="round" stroke-linejoin="round"/><circle cx="180" cy="253" r="18" fill="#ae95ff" /><circle cx="180" cy="253" r="7" fill="#102039" /><path d="M180 336L410 170" fill="none" stroke="#314366" stroke-width="1.4" stroke-linecap="round" stroke-linejoin="round"/><path d="M180 336L410 253" fill="none" stroke="#314366" stroke-width="1.4" stroke-linecap="round" stroke-linejoin="round"/><path d="M180 336L410 336" fill="none" stroke="#314366" stroke-width="1.4" stroke-linecap="round" stroke-linejoin="round"/><path d="M180 336L410 419" fill="none" stroke="#314366" stroke-width="1.4" stroke-linecap="round" stroke-linejoin="round"/><path d="M180 336L410 502" fill="none" stroke="#314366" stroke-width="1.4" stroke-linecap="round" stroke-linejoin="round"/><path d="M180 336L410 585" fill="none" stroke="#314366" stroke-width="1.4" stroke-linecap="round" stroke-linejoin="round"/><circle cx="180" cy="336" r="18" fill="#ae95ff" /><circle cx="180" cy="336" r="7" fill="#102039" /><path d="M180 419L410 170" fill="none" stroke="#314366" stroke-width="1.4" stroke-linecap="round" stroke-linejoin="round"/><path d="M180 419L410 253" fill="none" stroke="#314366" stroke-width="1.4" stroke-linecap="round" stroke-linejoin="round"/><path d="M180 419L410 336" fill="none" stroke="#314366" stroke-width="1.4" stroke-linecap="round" stroke-linejoin="round"/><path d="M180 419L410 419" fill="none" stroke="#314366" stroke-width="1.4" stroke-linecap="round" stroke-linejoin="round"/><path d="M180 419L410 502" fill="none" stroke="#314366" stroke-width="1.4" stroke-linecap="round" stroke-linejoin="round"/><path d="M180 419L410 585" fill="none" stroke="#314366" stroke-width="1.4" stroke-linecap="round" stroke-linejoin="round"/><circle cx="180" cy="419" r="18" fill="#fd81ba" /><circle cx="180" cy="419" r="7" fill="#102039" /><path d="M180 502L410 170" fill="none" stroke="#314366" stroke-width="1.4" stroke-linecap="round" stroke-linejoin="round"/><path d="M180 502L410 253" fill="none" stroke="#314366" stroke-width="1.4" stroke-linecap="round" stroke-linejoin="round"/><path d="M180 502L410 336" fill="none" stroke="#314366" stroke-width="1.4" stroke-linecap="round" stroke-linejoin="round"/><path d="M180 502L410 419" fill="none" stroke="#314366" stroke-width="1.4" stroke-linecap="round" stroke-linejoin="round"/><path d="M180 502L410 502" fill="none" stroke="#314366" stroke-width="1.4" stroke-linecap="round" stroke-linejoin="round"/><path d="M180 502L410 585" fill="none" stroke="#314366" stroke-width="1.4" stroke-linecap="round" stroke-linejoin="round"/><circle cx="180" cy="502" r="18" fill="#ae95ff" /><circle cx="180" cy="502" r="7" fill="#102039" /><path d="M180 585L410 170" fill="none" stroke="#314366" stroke-width="1.4" stroke-linecap="round" stroke-linejoin="round"/><path d="M180 585L410 253" fill="none" stroke="#314366" stroke-width="1.4" stroke-linecap="round" stroke-linejoin="round"/><path d="M180 585L410 336" fill="none" stroke="#314366" stroke-width="1.4" stroke-linecap="round" stroke-linejoin="round"/><path d="M180 585L410 419" fill="none" stroke="#314366" stroke-width="1.4" stroke-linecap="round" stroke-linejoin="round"/><path d="M180 585L410 502" fill="none" stroke="#314366" stroke-width="1.4" stroke-linecap="round" stroke-linejoin="round"/><path d="M180 585L410 585" fill="none" stroke="#314366" stroke-width="1.4" stroke-linecap="round" stroke-linejoin="round"/><circle cx="180" cy="585" r="18" fill="#ae95ff" /><circle cx="180" cy="585" r="7" fill="#102039" /><path d="M410 170L640 170" fill="none" stroke="#314366" stroke-width="1.4" stroke-linecap="round" stroke-linejoin="round"/><path d="M410 170L640 253" fill="none" stroke="#314366" stroke-width="1.4" stroke-linecap="round" stroke-linejoin="round"/><path d="M410 170L640 336" fill="none" stroke="#314366" stroke-width="1.4" stroke-linecap="round" stroke-linejoin="round"/><path d="M410 170L640 419" fill="none" stroke="#314366" stroke-width="1.4" stroke-linecap="round" stroke-linejoin="round"/><path d="M410 170L640 502" fill="none" stroke="#314366" stroke-width="1.4" stroke-linecap="round" stroke-linejoin="round"/><path d="M410 170L640 585" fill="none" stroke="#314366" stroke-width="1.4" stroke-linecap="round" stroke-linejoin="round"/><circle cx="410" cy="170" r="18" fill="#ae95ff" /><circle cx="410" cy="170" r="7" fill="#102039" /><path d="M410 253L640 170" fill="none" stroke="#314366" stroke-width="1.4" stroke-linecap="round" stroke-linejoin="round"/><path d="M410 253L640 253" fill="none" stroke="#314366" stroke-width="1.4" stroke-linecap="round" stroke-linejoin="round"/><path d="M410 253L640 336" fill="none" stroke="#314366" stroke-width="1.4" stroke-linecap="round" stroke-linejoin="round"/><path d="M410 253L640 419" fill="none" stroke="#314366" stroke-width="1.4" stroke-linecap="round" stroke-linejoin="round"/><path d="M410 253L640 502" fill="none" stroke="#314366" stroke-width="1.4" stroke-linecap="round" stroke-linejoin="round"/><path d="M410 253L640 585" fill="none" stroke="#314366" stroke-width="1.4" stroke-linecap="round" stroke-linejoin="round"/><circle cx="410" cy="253" r="18" fill="#ae95ff" /><circle cx="410" cy="253" r="7" fill="#102039" /><path d="M410 336L640 170" fill="none" stroke="#314366" stroke-width="1.4" stroke-linecap="round" stroke-linejoin="round"/><path d="M410 336L640 253" fill="none" stroke="#314366" stroke-width="1.4" stroke-linecap="round" stroke-linejoin="round"/><path d="M410 336L640 336" fill="none" stroke="#314366" stroke-width="1.4" stroke-linecap="round" stroke-linejoin="round"/><path d="M410 336L640 419" fill="none" stroke="#314366" stroke-width="1.4" stroke-linecap="round" stroke-linejoin="round"/><path d="M410 336L640 502" fill="none" stroke="#314366" stroke-width="1.4" stroke-linecap="round" stroke-linejoin="round"/><path d="M410 336L640 585" fill="none" stroke="#314366" stroke-width="1.4" stroke-linecap="round" stroke-linejoin="round"/><circle cx="410" cy="336" r="18" fill="#fd81ba" /><circle cx="410" cy="336" r="7" fill="#102039" /><path d="M410 419L640 170" fill="none" stroke="#314366" stroke-width="1.4" stroke-linecap="round" stroke-linejoin="round"/><path d="M410 419L640 253" fill="none" stroke="#314366" stroke-width="1.4" stroke-linecap="round" stroke-linejoin="round"/><path d="M410 419L640 336" fill="none" stroke="#314366" stroke-width="1.4" stroke-linecap="round" stroke-linejoin="round"/><path d="M410 419L640 419" fill="none" stroke="#314366" stroke-width="1.4" stroke-linecap="round" stroke-linejoin="round"/><path d="M410 419L640 502" fill="none" stroke="#314366" stroke-width="1.4" stroke-linecap="round" stroke-linejoin="round"/><path d="M410 419L640 585" fill="none" stroke="#314366" stroke-width="1.4" stroke-linecap="round" stroke-linejoin="round"/><circle cx="410" cy="419" r="18" fill="#ae95ff" /><circle cx="410" cy="419" r="7" fill="#102039" /><path d="M410 502L640 170" fill="none" stroke="#314366" stroke-width="1.4" stroke-linecap="round" stroke-linejoin="round"/><path d="M410 502L640 253" fill="none" stroke="#314366" stroke-width="1.4" stroke-linecap="round" stroke-linejoin="round"/><path d="M410 502L640 336" fill="none" stroke="#314366" stroke-width="1.4" stroke-linecap="round" stroke-linejoin="round"/><path d="M410 502L640 419" fill="none" stroke="#314366" stroke-width="1.4" stroke-linecap="round" stroke-linejoin="round"/><path d="M410 502L640 502" fill="none" stroke="#314366" stroke-width="1.4" stroke-linecap="round" stroke-linejoin="round"/><path d="M410 502L640 585" fill="none" stroke="#314366" stroke-width="1.4" stroke-linecap="round" stroke-linejoin="round"/><circle cx="410" cy="502" r="18" fill="#ae95ff" /><circle cx="410" cy="502" r="7" fill="#102039" /><path d="M410 585L640 170" fill="none" stroke="#314366" stroke-width="1.4" stroke-linecap="round" stroke-linejoin="round"/><path d="M410 585L640 253" fill="none" stroke="#314366" stroke-width="1.4" stroke-linecap="round" stroke-linejoin="round"/><path d="M410 585L640 336" fill="none" stroke="#314366" stroke-width="1.4" stroke-linecap="round" stroke-linejoin="round"/><path d="M410 585L640 419" fill="none" stroke="#314366" stroke-width="1.4" stroke-linecap="round" stroke-linejoin="round"/><path d="M410 585L640 502" fill="none" stroke="#314366" stroke-width="1.4" stroke-linecap="round" stroke-linejoin="round"/><path d="M410 585L640 585" fill="none" stroke="#314366" stroke-width="1.4" stroke-linecap="round" stroke-linejoin="round"/><circle cx="410" cy="585" r="18" fill="#fd81ba" /><circle cx="410" cy="585" r="7" fill="#102039" /><path d="M640 170L870 170" fill="none" stroke="#314366" stroke-width="1.4" stroke-linecap="round" stroke-linejoin="round"/><path d="M640 170L870 253" fill="none" stroke="#314366" stroke-width="1.4" stroke-linecap="round" stroke-linejoin="round"/><path d="M640 170L870 336" fill="none" stroke="#314366" stroke-width="1.4" stroke-linecap="round" stroke-linejoin="round"/><path d="M640 170L870 419" fill="none" stroke="#314366" stroke-width="1.4" stroke-linecap="round" stroke-linejoin="round"/><path d="M640 170L870 502" fill="none" stroke="#314366" stroke-width="1.4" stroke-linecap="round" stroke-linejoin="round"/><path d="M640 170L870 585" fill="none" stroke="#314366" stroke-width="1.4" stroke-linecap="round" stroke-linejoin="round"/><circle cx="640" cy="170" r="18" fill="#ae95ff" /><circle cx="640" cy="170" r="7" fill="#102039" /><path d="M640 253L870 170" fill="none" stroke="#314366" stroke-width="1.4" stroke-linecap="round" stroke-linejoin="round"/><path d="M640 253L870 253" fill="none" stroke="#314366" stroke-width="1.4" stroke-linecap="round" stroke-linejoin="round"/><path d="M640 253L870 336" fill="none" stroke="#314366" stroke-width="1.4" stroke-linecap="round" stroke-linejoin="round"/><path d="M640 253L870 419" fill="none" stroke="#314366" stroke-width="1.4" stroke-linecap="round" stroke-linejoin="round"/><path d="M640 253L870 502" fill="none" stroke="#314366" stroke-width="1.4" stroke-linecap="round" stroke-linejoin="round"/><path d="M640 253L870 585" fill="none" stroke="#314366" stroke-width="1.4" stroke-linecap="round" stroke-linejoin="round"/><circle cx="640" cy="253" r="18" fill="#fd81ba" /><circle cx="640" cy="253" r="7" fill="#102039" /><path d="M640 336L870 170" fill="none" stroke="#314366" stroke-width="1.4" stroke-linecap="round" stroke-linejoin="round"/><path d="M640 336L870 253" fill="none" stroke="#314366" stroke-width="1.4" stroke-linecap="round" stroke-linejoin="round"/><path d="M640 336L870 336" fill="none" stroke="#314366" stroke-width="1.4" stroke-linecap="round" stroke-linejoin="round"/><path d="M640 336L870 419" fill="none" stroke="#314366" stroke-width="1.4" stroke-linecap="round" stroke-linejoin="round"/><path d="M640 336L870 502" fill="none" stroke="#314366" stroke-width="1.4" stroke-linecap="round" stroke-linejoin="round"/><path d="M640 336L870 585" fill="none" stroke="#314366" stroke-width="1.4" stroke-linecap="round" stroke-linejoin="round"/><circle cx="640" cy="336" r="18" fill="#ae95ff" /><circle cx="640" cy="336" r="7" fill="#102039" /><path d="M640 419L870 170" fill="none" stroke="#314366" stroke-width="1.4" stroke-linecap="round" stroke-linejoin="round"/><path d="M640 419L870 253" fill="none" stroke="#314366" stroke-width="1.4" stroke-linecap="round" stroke-linejoin="round"/><path d="M640 419L870 336" fill="none" stroke="#314366" stroke-width="1.4" stroke-linecap="round" stroke-linejoin="round"/><path d="M640 419L870 419" fill="none" stroke="#314366" stroke-width="1.4" stroke-linecap="round" stroke-linejoin="round"/><path d="M640 419L870 502" fill="none" stroke="#314366" stroke-width="1.4" stroke-linecap="round" stroke-linejoin="round"/><path d="M640 419L870 585" fill="none" stroke="#314366" stroke-width="1.4" stroke-linecap="round" stroke-linejoin="round"/><circle cx="640" cy="419" r="18" fill="#ae95ff" /><circle cx="640" cy="419" r="7" fill="#102039" /><path d="M640 502L870 170" fill="none" stroke="#314366" stroke-width="1.4" stroke-linecap="round" stroke-linejoin="round"/><path d="M640 502L870 253" fill="none" stroke="#314366" stroke-width="1.4" stroke-linecap="round" stroke-linejoin="round"/><path d="M640 502L870 336" fill="none" stroke="#314366" stroke-width="1.4" stroke-linecap="round" stroke-linejoin="round"/><path d="M640 502L870 419" fill="none" stroke="#314366" stroke-width="1.4" stroke-linecap="round" stroke-linejoin="round"/><path d="M640 502L870 502" fill="none" stroke="#314366" stroke-width="1.4" stroke-linecap="round" stroke-linejoin="round"/><path d="M640 502L870 585" fill="none" stroke="#314366" stroke-width="1.4" stroke-linecap="round" stroke-linejoin="round"/><circle cx="640" cy="502" r="18" fill="#fd81ba" /><circle cx="640" cy="502" r="7" fill="#102039" /><path d="M640 585L870 170" fill="none" stroke="#314366" stroke-width="1.4" stroke-linecap="round" stroke-linejoin="round"/><path d="M640 585L870 253" fill="none" stroke="#314366" stroke-width="1.4" stroke-linecap="round" stroke-linejoin="round"/><path d="M640 585L870 336" fill="none" stroke="#314366" stroke-width="1.4" stroke-linecap="round" stroke-linejoin="round"/><path d="M640 585L870 419" fill="none" stroke="#314366" stroke-width="1.4" stroke-linecap="round" stroke-linejoin="round"/><path d="M640 585L870 502" fill="none" stroke="#314366" stroke-width="1.4" stroke-linecap="round" stroke-linejoin="round"/><path d="M640 585L870 585" fill="none" stroke="#314366" stroke-width="1.4" stroke-linecap="round" stroke-linejoin="round"/><circle cx="640" cy="585" r="18" fill="#ae95ff" /><circle cx="640" cy="585" r="7" fill="#102039" /><path d="M870 170L1100 170" fill="none" stroke="#314366" stroke-width="1.4" stroke-linecap="round" stroke-linejoin="round"/><path d="M870 170L1100 253" fill="none" stroke="#314366" stroke-width="1.4" stroke-linecap="round" stroke-linejoin="round"/><path d="M870 170L1100 336" fill="none" stroke="#314366" stroke-width="1.4" stroke-linecap="round" stroke-linejoin="round"/><path d="M870 170L1100 419" fill="none" stroke="#314366" stroke-width="1.4" stroke-linecap="round" stroke-linejoin="round"/><path d="M870 170L1100 502" fill="none" stroke="#314366" stroke-width="1.4" stroke-linecap="round" stroke-linejoin="round"/><path d="M870 170L1100 585" fill="none" stroke="#314366" stroke-width="1.4" stroke-linecap="round" stroke-linejoin="round"/><circle cx="870" cy="170" r="18" fill="#fd81ba" /><circle cx="870" cy="170" r="7" fill="#102039" /><path d="M870 253L1100 170" fill="none" stroke="#314366" stroke-width="1.4" stroke-linecap="round" stroke-linejoin="round"/><path d="M870 253L1100 253" fill="none" stroke="#314366" stroke-width="1.4" stroke-linecap="round" stroke-linejoin="round"/><path d="M870 253L1100 336" fill="none" stroke="#314366" stroke-width="1.4" stroke-linecap="round" stroke-linejoin="round"/><path d="M870 253L1100 419" fill="none" stroke="#314366" stroke-width="1.4" stroke-linecap="round" stroke-linejoin="round"/><path d="M870 253L1100 502" fill="none" stroke="#314366" stroke-width="1.4" stroke-linecap="round" stroke-linejoin="round"/><path d="M870 253L1100 585" fill="none" stroke="#314366" stroke-width="1.4" stroke-linecap="round" stroke-linejoin="round"/><circle cx="870" cy="253" r="18" fill="#ae95ff" /><circle cx="870" cy="253" r="7" fill="#102039" /><path d="M870 336L1100 170" fill="none" stroke="#314366" stroke-width="1.4" stroke-linecap="round" stroke-linejoin="round"/><path d="M870 336L1100 253" fill="none" stroke="#314366" stroke-width="1.4" stroke-linecap="round" stroke-linejoin="round"/><path d="M870 336L1100 336" fill="none" stroke="#314366" stroke-width="1.4" stroke-linecap="round" stroke-linejoin="round"/><path d="M870 336L1100 419" fill="none" stroke="#314366" stroke-width="1.4" stroke-linecap="round" stroke-linejoin="round"/><path d="M870 336L1100 502" fill="none" stroke="#314366" stroke-width="1.4" stroke-linecap="round" stroke-linejoin="round"/><path d="M870 336L1100 585" fill="none" stroke="#314366" stroke-width="1.4" stroke-linecap="round" stroke-linejoin="round"/><circle cx="870" cy="336" r="18" fill="#ae95ff" /><circle cx="870" cy="336" r="7" fill="#102039" /><path d="M870 419L1100 170" fill="none" stroke="#314366" stroke-width="1.4" stroke-linecap="round" stroke-linejoin="round"/><path d="M870 419L1100 253" fill="none" stroke="#314366" stroke-width="1.4" stroke-linecap="round" stroke-linejoin="round"/><path d="M870 419L1100 336" fill="none" stroke="#314366" stroke-width="1.4" stroke-linecap="round" stroke-linejoin="round"/><path d="M870 419L1100 419" fill="none" stroke="#314366" stroke-width="1.4" stroke-linecap="round" stroke-linejoin="round"/><path d="M870 419L1100 502" fill="none" stroke="#314366" stroke-width="1.4" stroke-linecap="round" stroke-linejoin="round"/><path d="M870 419L1100 585" fill="none" stroke="#314366" stroke-width="1.4" stroke-linecap="round" stroke-linejoin="round"/><circle cx="870" cy="419" r="18" fill="#fd81ba" /><circle cx="870" cy="419" r="7" fill="#102039" /><path d="M870 502L1100 170" fill="none" stroke="#314366" stroke-width="1.4" stroke-linecap="round" stroke-linejoin="round"/><path d="M870 502L1100 253" fill="none" stroke="#314366" stroke-width="1.4" stroke-linecap="round" stroke-linejoin="round"/><path d="M870 502L1100 336" fill="none" stroke="#314366" stroke-width="1.4" stroke-linecap="round" stroke-linejoin="round"/><path d="M870 502L1100 419" fill="none" stroke="#314366" stroke-width="1.4" stroke-linecap="round" stroke-linejoin="round"/><path d="M870 502L1100 502" fill="none" stroke="#314366" stroke-width="1.4" stroke-linecap="round" stroke-linejoin="round"/><path d="M870 502L1100 585" fill="none" stroke="#314366" stroke-width="1.4" stroke-linecap="round" stroke-linejoin="round"/><circle cx="870" cy="502" r="18" fill="#ae95ff" /><circle cx="870" cy="502" r="7" fill="#102039" /><path d="M870 585L1100 170" fill="none" stroke="#314366" stroke-width="1.4" stroke-linecap="round" stroke-linejoin="round"/><path d="M870 585L1100 253" fill="none" stroke="#314366" stroke-width="1.4" stroke-linecap="round" stroke-linejoin="round"/><path d="M870 585L1100 336" fill="none" stroke="#314366" stroke-width="1.4" stroke-linecap="round" stroke-linejoin="round"/><path d="M870 585L1100 419" fill="none" stroke="#314366" stroke-width="1.4" stroke-linecap="round" stroke-linejoin="round"/><path d="M870 585L1100 502" fill="none" stroke="#314366" stroke-width="1.4" stroke-linecap="round" stroke-linejoin="round"/><path d="M870 585L1100 585" fill="none" stroke="#314366" stroke-width="1.4" stroke-linecap="round" stroke-linejoin="round"/><circle cx="870" cy="585" r="18" fill="#ae95ff" /><circle cx="870" cy="585" r="7" fill="#102039" /><circle cx="1100" cy="170" r="18" fill="#ae95ff" /><circle cx="1100" cy="170" r="7" fill="#102039" /><circle cx="1100" cy="253" r="18" fill="#ae95ff" /><circle cx="1100" cy="253" r="7" fill="#102039" /><circle cx="1100" cy="336" r="18" fill="#fd81ba" /><circle cx="1100" cy="336" r="7" fill="#102039" /><circle cx="1100" cy="419" r="18" fill="#ae95ff" /><circle cx="1100" cy="419" r="7" fill="#102039" /><circle cx="1100" cy="502" r="18" fill="#ae95ff" /><circle cx="1100" cy="502" r="7" fill="#102039" /><circle cx="1100" cy="585" r="18" fill="#fd81ba" /><circle cx="1100" cy="585" r="7" fill="#102039" /><rect x="0" y="0" width="1280" height="95" rx="0" fill="#101a30" /><text x="42" y="57" font-family="system-ui,sans-serif" font-size="30" fill="#edfaff" font-weight="700" letter-spacing="2">NEURAL NETWORK ATLAS</text><text x="44" y="756" font-family="system-ui,sans-serif" font-size="18" fill="#ae95ff" letter-spacing="4">CREATIVE &amp; TECHNICAL PROJECTS</text><text x="1120" y="756" font-family="system-ui,sans-serif" font-size="18" fill="#90a8c2" >29 / 40</text></svg>