<svg xmlns="http://www.w3.org/2000/svg" width="1280" height="800" viewBox="0 0 1280 800"><title>Orbital Station</title><rect x="0" y="0" width="1280" height="800" rx="0" fill="#0b1227" /><circle cx="0" cy="140" r="1" fill="#c1d6e5" /><circle cx="139" cy="223" r="2" fill="#c1d6e5" /><circle cx="278" cy="306" r="3" fill="#c1d6e5" /><circle cx="417" cy="389" r="1" fill="#c1d6e5" /><circle cx="556" cy="472" r="2" fill="#c1d6e5" /><circle cx="695" cy="555" r="3" fill="#c1d6e5" /><circle cx="834" cy="638" r="1" fill="#c1d6e5" /><circle cx="973" cy="191" r="2" fill="#c1d6e5" /><circle cx="1112" cy="274" r="3" fill="#c1d6e5" /><circle cx="1251" cy="357" r="1" fill="#c1d6e5" /><circle cx="110" cy="440" r="2" fill="#c1d6e5" /><circle cx="249" cy="523" r="3" fill="#c1d6e5" /><circle cx="388" cy="606" r="1" fill="#c1d6e5" /><circle cx="527" cy="159" r="2" fill="#c1d6e5" /><circle cx="666" cy="242" r="3" fill="#c1d6e5" /><circle cx="805" cy="325" r="1" fill="#c1d6e5" /><circle cx="944" cy="408" r="2" fill="#c1d6e5" /><circle cx="1083" cy="491" r="3" fill="#c1d6e5" /><circle cx="1222" cy="574" r="1" fill="#c1d6e5" /><circle cx="81" cy="657" r="2" fill="#c1d6e5" /><circle cx="220" cy="210" r="3" fill="#c1d6e5" /><circle cx="359" cy="293" r="1" fill="#c1d6e5" /><circle cx="498" cy="376" r="2" fill="#c1d6e5" /><circle cx="637" cy="459" r="3" fill="#c1d6e5" /><circle cx="776" cy="542" r="1" fill="#c1d6e5" /><circle cx="915" cy="625" r="2" fill="#c1d6e5" /><circle cx="1054" cy="178" r="3" fill="#c1d6e5" /><circle cx="1193" cy="261" r="1" fill="#c1d6e5" /><circle cx="52" cy="344" r="2" fill="#c1d6e5" /><circle cx="191" cy="427" r="3" fill="#c1d6e5" /><circle cx="330" cy="510" r="1" fill="#c1d6e5" /><circle cx="469" cy="593" r="2" fill="#c1d6e5" /><circle cx="608" cy="146" r="3" fill="#c1d6e5" /><circle cx="747" cy="229" r="1" fill="#c1d6e5" /><circle cx="886" cy="312" r="2" fill="#c1d6e5" /><circle cx="1025" cy="395" r="3" fill="#c1d6e5" /><circle cx="1164" cy="478" r="1" fill="#c1d6e5" /><circle cx="23" cy="561" r="2" fill="#c1d6e5" /><circle cx="162" cy="644" r="3" fill="#c1d6e5" /><circle cx="301" cy="197" r="1" fill="#c1d6e5" /><circle cx="440" cy="280" r="2" fill="#c1d6e5" /><circle cx="579" cy="363" r="3" fill="#c1d6e5" /><circle cx="718" cy="446" r="1" fill="#c1d6e5" /><circle cx="857" cy="529" r="2" fill="#c1d6e5" /><circle cx="996" cy="612" r="3" fill="#c1d6e5" /><circle cx="1135" cy="165" r="1" fill="#c1d6e5" /><circle cx="1274" cy="248" r="2" fill="#c1d6e5" /><circle cx="133" cy="331" r="3" fill="#c1d6e5" /><circle cx="272" cy="414" r="1" fill="#c1d6e5" /><circle cx="411" cy="497" r="2" fill="#c1d6e5" /><circle cx="550" cy="580" r="3" fill="#c1d6e5" /><circle cx="689" cy="663" r="1" fill="#c1d6e5" /><circle cx="828" cy="216" r="2" fill="#c1d6e5" /><circle cx="967" cy="299" r="3" fill="#c1d6e5" /><circle cx="1106" cy="382" r="1" fill="#c1d6e5" /><circle cx="1245" cy="465" r="2" fill="#c1d6e5" /><circle cx="104" cy="548" r="3" fill="#c1d6e5" /><circle cx="243" cy="631" r="1" fill="#c1d6e5" /><circle cx="382" cy="184" r="2" fill="#c1d6e5" /><circle cx="521" cy="267" r="3" fill="#c1d6e5" /><circle cx="660" cy="350" r="1" fill="#c1d6e5" /><circle cx="799" cy="433" r="2" fill="#c1d6e5" /><circle cx="938" cy="516" r="3" fill="#c1d6e5" /><circle cx="1077" cy="599" r="1" fill="#c1d6e5" /><circle cx="1216" cy="152" r="2" fill="#c1d6e5" /><circle cx="75" cy="235" r="3" fill="#c1d6e5" /><circle cx="214" cy="318" r="1" fill="#c1d6e5" /><circle cx="353" cy="401" r="2" fill="#c1d6e5" /><circle cx="492" cy="484" r="3" fill="#c1d6e5" /><circle cx="631" cy="567" r="1" fill="#c1d6e5" /><circle cx="770" cy="650" r="2" fill="#c1d6e5" /><circle cx="909" cy="203" r="3" fill="#c1d6e5" /><circle cx="1048" cy="286" r="1" fill="#c1d6e5" /><circle cx="1187" cy="369" r="2" fill="#c1d6e5" /><circle cx="46" cy="452" r="3" fill="#c1d6e5" /><circle cx="185" cy="535" r="1" fill="#c1d6e5" /><circle cx="324" cy="618" r="2" fill="#c1d6e5" /><circle cx="463" cy="171" r="3" fill="#c1d6e5" /><circle cx="602" cy="254" r="1" fill="#c1d6e5" /><circle cx="741" cy="337" r="2" fill="#c1d6e5" /><circle cx="880" cy="420" r="3" fill="#c1d6e5" /><circle cx="1019" cy="503" r="1" fill="#c1d6e5" /><circle cx="1158" cy="586" r="2" fill="#c1d6e5" /><circle cx="17" cy="669" r="3" fill="#c1d6e5" /><circle cx="156" cy="222" r="1" fill="#c1d6e5" /><circle cx="295" cy="305" r="2" fill="#c1d6e5" /><circle cx="434" cy="388" r="3" fill="#c1d6e5" /><circle cx="573" cy="471" r="1" fill="#c1d6e5" /><circle cx="712" cy="554" r="2" fill="#c1d6e5" /><circle cx="851" cy="637" r="3" fill="#c1d6e5" /><circle cx="990" cy="190" r="1" fill="#c1d6e5" /><circle cx="1129" cy="273" r="2" fill="#c1d6e5" /><circle cx="1268" cy="356" r="3" fill="#c1d6e5" /><circle cx="127" cy="439" r="1" fill="#c1d6e5" /><circle cx="266" cy="522" r="2" fill="#c1d6e5" /><circle cx="890" cy="340" r="174" fill="#7c6cff" /><path d="M670 405q220-240 440-30" fill="none" stroke="#59e5ff" stroke-width="24" stroke-linecap="round" stroke-linejoin="round"/><path d="M215 520l260-180-75 200-105-27-60 85Z" fill="#e6eef4" stroke="none" stroke-width="1" stroke-linecap="round" stroke-linejoin="round"/><path d="M340 434l100-66-37 106Z" fill="#59e5ff" stroke="none" stroke-width="1" stroke-linecap="round" stroke-linejoin="round"/><path d="M243 541l-80 76 117-34Z" fill="#7c6cff" stroke="none" stroke-width="1" stroke-linecap="round" stroke-linejoin="round"/><rect x="0" y="0" width="1280" height="95" rx="0" fill="#101a30" /><text x="42" y="57" font-family="system-ui,sans-serif" font-size="30" fill="#edfaff" font-weight="700" letter-spacing="2">ORBITAL STATION</text><text x="44" y="756" font-family="system-ui,sans-serif" font-size="18" fill="#59e5ff" letter-spacing="4">GAMES/INTERACTIVE</text><text x="1120" y="756" font-family="system-ui,sans-serif" font-size="18" fill="#90a8c2" >26 / 96</text></svg>