<svg xmlns="http://www.w3.org/2000/svg" width="1280" height="800" viewBox="0 0 1280 800"><title>Procedural City</title><rect x="0" y="0" width="1280" height="800" rx="0" fill="#0b1227" /><path d="M170 600V288l70-40 65 38v312l-65 40Z" fill="#284768" stroke="#ae95ff" stroke-width="2" stroke-linecap="round" stroke-linejoin="round"/><path d="M170 288l70-40 65 38-65 40Z" fill="#ae95ff" stroke="none" stroke-width="1" stroke-linecap="round" stroke-linejoin="round"/><path d="M240 326v312l65-40V286Z" fill="#fd81ba" stroke="none" stroke-width="1" stroke-linecap="round" stroke-linejoin="round"/><path d="M182 326l42 24" fill="none" stroke="#c7f0ed" stroke-width="6" stroke-linecap="round" stroke-linejoin="round"/><path d="M182 356l42 24" fill="none" stroke="#c7f0ed" stroke-width="6" stroke-linecap="round" stroke-linejoin="round"/><path d="M182 386l42 24" fill="none" stroke="#c7f0ed" stroke-width="6" stroke-linecap="round" stroke-linejoin="round"/><path d="M182 416l42 24" fill="none" stroke="#c7f0ed" stroke-width="6" stroke-linecap="round" stroke-linejoin="round"/><path d="M182 446l42 24" fill="none" stroke="#c7f0ed" stroke-width="6" stroke-linecap="round" stroke-linejoin="round"/><path d="M182 476l42 24" fill="none" stroke="#c7f0ed" stroke-width="6" stroke-linecap="round" stroke-linejoin="round"/><path d="M182 506l42 24" fill="none" stroke="#c7f0ed" stroke-width="6" stroke-linecap="round" stroke-linejoin="round"/><path d="M182 536l42 24" fill="none" stroke="#c7f0ed" stroke-width="6" stroke-linecap="round" stroke-linejoin="round"/><path d="M309 600V490l70-40 65 38v110l-65 40Z" fill="#284768" stroke="#ae95ff" stroke-width="2" stroke-linecap="round" stroke-linejoin="round"/><path d="M309 490l70-40 65 38-65 40Z" fill="#ae95ff" stroke="none" stroke-width="1" stroke-linecap="round" stroke-linejoin="round"/><path d="M379 528v110l65-40V488Z" fill="#fd81ba" stroke="none" stroke-width="1" stroke-linecap="round" stroke-linejoin="round"/><path d="M321 528l42 24" fill="none" stroke="#c7f0ed" stroke-width="6" stroke-linecap="round" stroke-linejoin="round"/><path d="M321 558l42 24" fill="none" stroke="#c7f0ed" stroke-width="6" stroke-linecap="round" stroke-linejoin="round"/><path d="M321 588l42 24" fill="none" stroke="#c7f0ed" stroke-width="6" stroke-linecap="round" stroke-linejoin="round"/><path d="M448 600V437l70-40 65 38v163l-65 40Z" fill="#284768" stroke="#ae95ff" stroke-width="2" stroke-linecap="round" stroke-linejoin="round"/><path d="M448 437l70-40 65 38-65 40Z" fill="#ae95ff" stroke="none" stroke-width="1" stroke-linecap="round" stroke-linejoin="round"/><path d="M518 475v163l65-40V435Z" fill="#fd81ba" stroke="none" stroke-width="1" stroke-linecap="round" stroke-linejoin="round"/><path d="M460 475l42 24" fill="none" stroke="#c7f0ed" stroke-width="6" stroke-linecap="round" stroke-linejoin="round"/><path d="M460 505l42 24" fill="none" stroke="#c7f0ed" stroke-width="6" stroke-linecap="round" stroke-linejoin="round"/><path d="M460 535l42 24" fill="none" stroke="#c7f0ed" stroke-width="6" stroke-linecap="round" stroke-linejoin="round"/><path d="M460 565l42 24" fill="none" stroke="#c7f0ed" stroke-width="6" stroke-linecap="round" stroke-linejoin="round"/><path d="M587 600V384l70-40 65 38v216l-65 40Z" fill="#284768" stroke="#ae95ff" stroke-width="2" stroke-linecap="round" stroke-linejoin="round"/><path d="M587 384l70-40 65 38-65 40Z" fill="#ae95ff" stroke="none" stroke-width="1" stroke-linecap="round" stroke-linejoin="round"/><path d="M657 422v216l65-40V382Z" fill="#fd81ba" stroke="none" stroke-width="1" stroke-linecap="round" stroke-linejoin="round"/><path d="M599 422l42 24" fill="none" stroke="#c7f0ed" stroke-width="6" stroke-linecap="round" stroke-linejoin="round"/><path d="M599 452l42 24" fill="none" stroke="#c7f0ed" stroke-width="6" stroke-linecap="round" stroke-linejoin="round"/><path d="M599 482l42 24" fill="none" stroke="#c7f0ed" stroke-width="6" stroke-linecap="round" stroke-linejoin="round"/><path d="M599 512l42 24" fill="none" stroke="#c7f0ed" stroke-width="6" stroke-linecap="round" stroke-linejoin="round"/><path d="M599 542l42 24" fill="none" stroke="#c7f0ed" stroke-width="6" stroke-linecap="round" stroke-linejoin="round"/><path d="M599 572l42 24" fill="none" stroke="#c7f0ed" stroke-width="6" stroke-linecap="round" stroke-linejoin="round"/><path d="M726 600V331l70-40 65 38v269l-65 40Z" fill="#284768" stroke="#ae95ff" stroke-width="2" stroke-linecap="round" stroke-linejoin="round"/><path d="M726 331l70-40 65 38-65 40Z" fill="#ae95ff" stroke="none" stroke-width="1" stroke-linecap="round" stroke-linejoin="round"/><path d="M796 369v269l65-40V329Z" fill="#fd81ba" stroke="none" stroke-width="1" stroke-linecap="round" stroke-linejoin="round"/><path d="M738 369l42 24" fill="none" stroke="#c7f0ed" stroke-width="6" stroke-linecap="round" stroke-linejoin="round"/><path d="M738 399l42 24" fill="none" stroke="#c7f0ed" stroke-width="6" stroke-linecap="round" stroke-linejoin="round"/><path d="M738 429l42 24" fill="none" stroke="#c7f0ed" stroke-width="6" stroke-linecap="round" stroke-linejoin="round"/><path d="M738 459l42 24" fill="none" stroke="#c7f0ed" stroke-width="6" stroke-linecap="round" stroke-linejoin="round"/><path d="M738 489l42 24" fill="none" stroke="#c7f0ed" stroke-width="6" stroke-linecap="round" stroke-linejoin="round"/><path d="M738 519l42 24" fill="none" stroke="#c7f0ed" stroke-width="6" stroke-linecap="round" stroke-linejoin="round"/><path d="M738 549l42 24" fill="none" stroke="#c7f0ed" stroke-width="6" stroke-linecap="round" stroke-linejoin="round"/><path d="M865 600V533l70-40 65 38v67l-65 40Z" fill="#284768" stroke="#ae95ff" stroke-width="2" stroke-linecap="round" stroke-linejoin="round"/><path d="M865 533l70-40 65 38-65 40Z" fill="#ae95ff" stroke="none" stroke-width="1" stroke-linecap="round" stroke-linejoin="round"/><path d="M935 571v67l65-40V531Z" fill="#fd81ba" stroke="none" stroke-width="1" stroke-linecap="round" stroke-linejoin="round"/><path d="M877 571l42 24" fill="none" stroke="#c7f0ed" stroke-width="6" stroke-linecap="round" stroke-linejoin="round"/><path d="M1004 600V480l70-40 65 38v120l-65 40Z" fill="#284768" stroke="#ae95ff" stroke-width="2" stroke-linecap="round" stroke-linejoin="round"/><path d="M1004 480l70-40 65 38-65 40Z" fill="#ae95ff" stroke="none" stroke-width="1" stroke-linecap="round" stroke-linejoin="round"/><path d="M1074 518v120l65-40V478Z" fill="#fd81ba" stroke="none" stroke-width="1" stroke-linecap="round" stroke-linejoin="round"/><path d="M1016 518l42 24" fill="none" stroke="#c7f0ed" stroke-width="6" stroke-linecap="round" stroke-linejoin="round"/><path d="M1016 548l42 24" fill="none" stroke="#c7f0ed" stroke-width="6" stroke-linecap="round" stroke-linejoin="round"/><path d="M1016 578l42 24" fill="none" stroke="#c7f0ed" stroke-width="6" stroke-linecap="round" stroke-linejoin="round"/><path d="M217 525V352l70-40 65 38v173l-65 40Z" fill="#284768" stroke="#ae95ff" stroke-width="2" stroke-linecap="round" stroke-linejoin="round"/><path d="M217 352l70-40 65 38-65 40Z" fill="#ae95ff" stroke="none" stroke-width="1" stroke-linecap="round" stroke-linejoin="round"/><path d="M287 390v173l65-40V350Z" fill="#fd81ba" stroke="none" stroke-width="1" stroke-linecap="round" stroke-linejoin="round"/><path d="M229 390l42 24" fill="none" stroke="#c7f0ed" stroke-width="6" stroke-linecap="round" stroke-linejoin="round"/><path d="M229 420l42 24" fill="none" stroke="#c7f0ed" stroke-width="6" stroke-linecap="round" stroke-linejoin="round"/><path d="M229 450l42 24" fill="none" stroke="#c7f0ed" stroke-width="6" stroke-linecap="round" stroke-linejoin="round"/><path d="M229 480l42 24" fill="none" stroke="#c7f0ed" stroke-width="6" stroke-linecap="round" stroke-linejoin="round"/><path d="M356 525V299l70-40 65 38v226l-65 40Z" fill="#284768" stroke="#ae95ff" stroke-width="2" stroke-linecap="round" stroke-linejoin="round"/><path d="M356 299l70-40 65 38-65 40Z" fill="#ae95ff" stroke="none" stroke-width="1" stroke-linecap="round" stroke-linejoin="round"/><path d="M426 337v226l65-40V297Z" fill="#fd81ba" stroke="none" stroke-width="1" stroke-linecap="round" stroke-linejoin="round"/><path d="M368 337l42 24" fill="none" stroke="#c7f0ed" stroke-width="6" stroke-linecap="round" stroke-linejoin="round"/><path d="M368 367l42 24" fill="none" stroke="#c7f0ed" stroke-width="6" stroke-linecap="round" stroke-linejoin="round"/><path d="M368 397l42 24" fill="none" stroke="#c7f0ed" stroke-width="6" stroke-linecap="round" stroke-linejoin="round"/><path d="M368 427l42 24" fill="none" stroke="#c7f0ed" stroke-width="6" stroke-linecap="round" stroke-linejoin="round"/><path d="M368 457l42 24" fill="none" stroke="#c7f0ed" stroke-width="6" stroke-linecap="round" stroke-linejoin="round"/><path d="M368 487l42 24" fill="none" stroke="#c7f0ed" stroke-width="6" stroke-linecap="round" stroke-linejoin="round"/><path d="M495 525V246l70-40 65 38v279l-65 40Z" fill="#284768" stroke="#ae95ff" stroke-width="2" stroke-linecap="round" stroke-linejoin="round"/><path d="M495 246l70-40 65 38-65 40Z" fill="#ae95ff" stroke="none" stroke-width="1" stroke-linecap="round" stroke-linejoin="round"/><path d="M565 284v279l65-40V244Z" fill="#fd81ba" stroke="none" stroke-width="1" stroke-linecap="round" stroke-linejoin="round"/><path d="M507 284l42 24" fill="none" stroke="#c7f0ed" stroke-width="6" stroke-linecap="round" stroke-linejoin="round"/><path d="M507 314l42 24" fill="none" stroke="#c7f0ed" stroke-width="6" stroke-linecap="round" stroke-linejoin="round"/><path d="M507 344l42 24" fill="none" stroke="#c7f0ed" stroke-width="6" stroke-linecap="round" stroke-linejoin="round"/><path d="M507 374l42 24" fill="none" stroke="#c7f0ed" stroke-width="6" stroke-linecap="round" stroke-linejoin="round"/><path d="M507 404l42 24" fill="none" stroke="#c7f0ed" stroke-width="6" stroke-linecap="round" stroke-linejoin="round"/><path d="M507 434l42 24" fill="none" stroke="#c7f0ed" stroke-width="6" stroke-linecap="round" stroke-linejoin="round"/><path d="M507 464l42 24" fill="none" stroke="#c7f0ed" stroke-width="6" stroke-linecap="round" stroke-linejoin="round"/><path d="M634 525V448l70-40 65 38v77l-65 40Z" fill="#284768" stroke="#ae95ff" stroke-width="2" stroke-linecap="round" stroke-linejoin="round"/><path d="M634 448l70-40 65 38-65 40Z" fill="#ae95ff" stroke="none" stroke-width="1" stroke-linecap="round" stroke-linejoin="round"/><path d="M704 486v77l65-40V446Z" fill="#fd81ba" stroke="none" stroke-width="1" stroke-linecap="round" stroke-linejoin="round"/><path d="M646 486l42 24" fill="none" stroke="#c7f0ed" stroke-width="6" stroke-linecap="round" stroke-linejoin="round"/><path d="M646 516l42 24" fill="none" stroke="#c7f0ed" stroke-width="6" stroke-linecap="round" stroke-linejoin="round"/><path d="M773 525V395l70-40 65 38v130l-65 40Z" fill="#284768" stroke="#ae95ff" stroke-width="2" stroke-linecap="round" stroke-linejoin="round"/><path d="M773 395l70-40 65 38-65 40Z" fill="#ae95ff" stroke="none" stroke-width="1" stroke-linecap="round" stroke-linejoin="round"/><path d="M843 433v130l65-40V393Z" fill="#fd81ba" stroke="none" stroke-width="1" stroke-linecap="round" stroke-linejoin="round"/><path d="M785 433l42 24" fill="none" stroke="#c7f0ed" stroke-width="6" stroke-linecap="round" stroke-linejoin="round"/><path d="M785 463l42 24" fill="none" stroke="#c7f0ed" stroke-width="6" stroke-linecap="round" stroke-linejoin="round"/><path d="M785 493l42 24" fill="none" stroke="#c7f0ed" stroke-width="6" stroke-linecap="round" stroke-linejoin="round"/><path d="M912 525V342l70-40 65 38v183l-65 40Z" fill="#284768" stroke="#ae95ff" stroke-width="2" stroke-linecap="round" stroke-linejoin="round"/><path d="M912 342l70-40 65 38-65 40Z" fill="#ae95ff" stroke="none" stroke-width="1" stroke-linecap="round" stroke-linejoin="round"/><path d="M982 380v183l65-40V340Z" fill="#fd81ba" stroke="none" stroke-width="1" stroke-linecap="round" stroke-linejoin="round"/><path d="M924 380l42 24" fill="none" stroke="#c7f0ed" stroke-width="6" stroke-linecap="round" stroke-linejoin="round"/><path d="M924 410l42 24" fill="none" stroke="#c7f0ed" stroke-width="6" stroke-linecap="round" stroke-linejoin="round"/><path d="M924 440l42 24" fill="none" stroke="#c7f0ed" stroke-width="6" stroke-linecap="round" stroke-linejoin="round"/><path d="M924 470l42 24" fill="none" stroke="#c7f0ed" stroke-width="6" stroke-linecap="round" stroke-linejoin="round"/><path d="M924 500l42 24" fill="none" stroke="#c7f0ed" stroke-width="6" stroke-linecap="round" stroke-linejoin="round"/><path d="M1051 525V289l70-40 65 38v236l-65 40Z" fill="#284768" stroke="#ae95ff" stroke-width="2" stroke-linecap="round" stroke-linejoin="round"/><path d="M1051 289l70-40 65 38-65 40Z" fill="#ae95ff" stroke="none" stroke-width="1" stroke-linecap="round" stroke-linejoin="round"/><path d="M1121 327v236l65-40V287Z" fill="#fd81ba" stroke="none" stroke-width="1" stroke-linecap="round" stroke-linejoin="round"/><path d="M1063 327l42 24" fill="none" stroke="#c7f0ed" stroke-width="6" stroke-linecap="round" stroke-linejoin="round"/><path d="M1063 357l42 24" fill="none" stroke="#c7f0ed" stroke-width="6" stroke-linecap="round" stroke-linejoin="round"/><path d="M1063 387l42 24" fill="none" stroke="#c7f0ed" stroke-width="6" stroke-linecap="round" stroke-linejoin="round"/><path d="M1063 417l42 24" fill="none" stroke="#c7f0ed" stroke-width="6" stroke-linecap="round" stroke-linejoin="round"/><path d="M1063 447l42 24" fill="none" stroke="#c7f0ed" stroke-width="6" stroke-linecap="round" stroke-linejoin="round"/><path d="M1063 477l42 24" fill="none" stroke="#c7f0ed" stroke-width="6" stroke-linecap="round" stroke-linejoin="round"/><path d="M264 450V161l70-40 65 38v289l-65 40Z" fill="#284768" stroke="#ae95ff" stroke-width="2" stroke-linecap="round" stroke-linejoin="round"/><path d="M264 161l70-40 65 38-65 40Z" fill="#ae95ff" stroke="none" stroke-width="1" stroke-linecap="round" stroke-linejoin="round"/><path d="M334 199v289l65-40V159Z" fill="#fd81ba" stroke="none" stroke-width="1" stroke-linecap="round" stroke-linejoin="round"/><path d="M276 199l42 24" fill="none" stroke="#c7f0ed" stroke-width="6" stroke-linecap="round" stroke-linejoin="round"/><path d="M276 229l42 24" fill="none" stroke="#c7f0ed" stroke-width="6" stroke-linecap="round" stroke-linejoin="round"/><path d="M276 259l42 24" fill="none" stroke="#c7f0ed" stroke-width="6" stroke-linecap="round" stroke-linejoin="round"/><path d="M276 289l42 24" fill="none" stroke="#c7f0ed" stroke-width="6" stroke-linecap="round" stroke-linejoin="round"/><path d="M276 319l42 24" fill="none" stroke="#c7f0ed" stroke-width="6" stroke-linecap="round" stroke-linejoin="round"/><path d="M276 349l42 24" fill="none" stroke="#c7f0ed" stroke-width="6" stroke-linecap="round" stroke-linejoin="round"/><path d="M276 379l42 24" fill="none" stroke="#c7f0ed" stroke-width="6" stroke-linecap="round" stroke-linejoin="round"/><path d="M276 409l42 24" fill="none" stroke="#c7f0ed" stroke-width="6" stroke-linecap="round" stroke-linejoin="round"/><path d="M403 450V363l70-40 65 38v87l-65 40Z" fill="#284768" stroke="#ae95ff" stroke-width="2" stroke-linecap="round" stroke-linejoin="round"/><path d="M403 363l70-40 65 38-65 40Z" fill="#ae95ff" stroke="none" stroke-width="1" stroke-linecap="round" stroke-linejoin="round"/><path d="M473 401v87l65-40V361Z" fill="#fd81ba" stroke="none" stroke-width="1" stroke-linecap="round" stroke-linejoin="round"/><path d="M415 401l42 24" fill="none" stroke="#c7f0ed" stroke-width="6" stroke-linecap="round" stroke-linejoin="round"/><path d="M415 431l42 24" fill="none" stroke="#c7f0ed" stroke-width="6" stroke-linecap="round" stroke-linejoin="round"/><path d="M542 450V310l70-40 65 38v140l-65 40Z" fill="#284768" stroke="#ae95ff" stroke-width="2" stroke-linecap="round" stroke-linejoin="round"/><path d="M542 310l70-40 65 38-65 40Z" fill="#ae95ff" stroke="none" stroke-width="1" stroke-linecap="round" stroke-linejoin="round"/><path d="M612 348v140l65-40V308Z" fill="#fd81ba" stroke="none" stroke-width="1" stroke-linecap="round" stroke-linejoin="round"/><path d="M554 348l42 24" fill="none" stroke="#c7f0ed" stroke-width="6" stroke-linecap="round" stroke-linejoin="round"/><path d="M554 378l42 24" fill="none" stroke="#c7f0ed" stroke-width="6" stroke-linecap="round" stroke-linejoin="round"/><path d="M554 408l42 24" fill="none" stroke="#c7f0ed" stroke-width="6" stroke-linecap="round" stroke-linejoin="round"/><path d="M681 450V257l70-40 65 38v193l-65 40Z" fill="#284768" stroke="#ae95ff" stroke-width="2" stroke-linecap="round" stroke-linejoin="round"/><path d="M681 257l70-40 65 38-65 40Z" fill="#ae95ff" stroke="none" stroke-width="1" stroke-linecap="round" stroke-linejoin="round"/><path d="M751 295v193l65-40V255Z" fill="#fd81ba" stroke="none" stroke-width="1" stroke-linecap="round" stroke-linejoin="round"/><path d="M693 295l42 24" fill="none" stroke="#c7f0ed" stroke-width="6" stroke-linecap="round" stroke-linejoin="round"/><path d="M693 325l42 24" fill="none" stroke="#c7f0ed" stroke-width="6" stroke-linecap="round" stroke-linejoin="round"/><path d="M693 355l42 24" fill="none" stroke="#c7f0ed" stroke-width="6" stroke-linecap="round" stroke-linejoin="round"/><path d="M693 385l42 24" fill="none" stroke="#c7f0ed" stroke-width="6" stroke-linecap="round" stroke-linejoin="round"/><path d="M693 415l42 24" fill="none" stroke="#c7f0ed" stroke-width="6" stroke-linecap="round" stroke-linejoin="round"/><path d="M820 450V204l70-40 65 38v246l-65 40Z" fill="#284768" stroke="#ae95ff" stroke-width="2" stroke-linecap="round" stroke-linejoin="round"/><path d="M820 204l70-40 65 38-65 40Z" fill="#ae95ff" stroke="none" stroke-width="1" stroke-linecap="round" stroke-linejoin="round"/><path d="M890 242v246l65-40V202Z" fill="#fd81ba" stroke="none" stroke-width="1" stroke-linecap="round" stroke-linejoin="round"/><path d="M832 242l42 24" fill="none" stroke="#c7f0ed" stroke-width="6" stroke-linecap="round" stroke-linejoin="round"/><path d="M832 272l42 24" fill="none" stroke="#c7f0ed" stroke-width="6" stroke-linecap="round" stroke-linejoin="round"/><path d="M832 302l42 24" fill="none" stroke="#c7f0ed" stroke-width="6" stroke-linecap="round" stroke-linejoin="round"/><path d="M832 332l42 24" fill="none" stroke="#c7f0ed" stroke-width="6" stroke-linecap="round" stroke-linejoin="round"/><path d="M832 362l42 24" fill="none" stroke="#c7f0ed" stroke-width="6" stroke-linecap="round" stroke-linejoin="round"/><path d="M832 392l42 24" fill="none" stroke="#c7f0ed" stroke-width="6" stroke-linecap="round" stroke-linejoin="round"/><path d="M959 450V151l70-40 65 38v299l-65 40Z" fill="#284768" stroke="#ae95ff" stroke-width="2" stroke-linecap="round" stroke-linejoin="round"/><path d="M959 151l70-40 65 38-65 40Z" fill="#ae95ff" stroke="none" stroke-width="1" stroke-linecap="round" stroke-linejoin="round"/><path d="M1029 189v299l65-40V149Z" fill="#fd81ba" stroke="none" stroke-width="1" stroke-linecap="round" stroke-linejoin="round"/><path d="M971 189l42 24" fill="none" stroke="#c7f0ed" stroke-width="6" stroke-linecap="round" stroke-linejoin="round"/><path d="M971 219l42 24" fill="none" stroke="#c7f0ed" stroke-width="6" stroke-linecap="round" stroke-linejoin="round"/><path d="M971 249l42 24" fill="none" stroke="#c7f0ed" stroke-width="6" stroke-linecap="round" stroke-linejoin="round"/><path d="M971 279l42 24" fill="none" stroke="#c7f0ed" stroke-width="6" stroke-linecap="round" stroke-linejoin="round"/><path d="M971 309l42 24" fill="none" stroke="#c7f0ed" stroke-width="6" stroke-linecap="round" stroke-linejoin="round"/><path d="M971 339l42 24" fill="none" stroke="#c7f0ed" stroke-width="6" stroke-linecap="round" stroke-linejoin="round"/><path d="M971 369l42 24" fill="none" stroke="#c7f0ed" stroke-width="6" stroke-linecap="round" stroke-linejoin="round"/><path d="M971 399l42 24" fill="none" stroke="#c7f0ed" stroke-width="6" stroke-linecap="round" stroke-linejoin="round"/><path d="M1098 450V353l70-40 65 38v97l-65 40Z" fill="#284768" stroke="#ae95ff" stroke-width="2" stroke-linecap="round" stroke-linejoin="round"/><path d="M1098 353l70-40 65 38-65 40Z" fill="#ae95ff" stroke="none" stroke-width="1" stroke-linecap="round" stroke-linejoin="round"/><path d="M1168 391v97l65-40V351Z" fill="#fd81ba" stroke="none" stroke-width="1" stroke-linecap="round" stroke-linejoin="round"/><path d="M1110 391l42 24" fill="none" stroke="#c7f0ed" stroke-width="6" stroke-linecap="round" stroke-linejoin="round"/><path d="M1110 421l42 24" fill="none" stroke="#c7f0ed" stroke-width="6" stroke-linecap="round" stroke-linejoin="round"/><path d="M311 375V225l70-40 65 38v150l-65 40Z" fill="#284768" stroke="#ae95ff" stroke-width="2" stroke-linecap="round" stroke-linejoin="round"/><path d="M311 225l70-40 65 38-65 40Z" fill="#ae95ff" stroke="none" stroke-width="1" stroke-linecap="round" stroke-linejoin="round"/><path d="M381 263v150l65-40V223Z" fill="#fd81ba" stroke="none" stroke-width="1" stroke-linecap="round" stroke-linejoin="round"/><path d="M323 263l42 24" fill="none" stroke="#c7f0ed" stroke-width="6" stroke-linecap="round" stroke-linejoin="round"/><path d="M323 293l42 24" fill="none" stroke="#c7f0ed" stroke-width="6" stroke-linecap="round" stroke-linejoin="round"/><path d="M323 323l42 24" fill="none" stroke="#c7f0ed" stroke-width="6" stroke-linecap="round" stroke-linejoin="round"/><path d="M323 353l42 24" fill="none" stroke="#c7f0ed" stroke-width="6" stroke-linecap="round" stroke-linejoin="round"/><rect x="0" y="0" width="1280" height="95" rx="0" fill="#101a30" /><text x="42" y="57" font-family="system-ui,sans-serif" font-size="30" fill="#edfaff" font-weight="700" letter-spacing="2">PROCEDURAL CITY</text><text x="44" y="756" font-family="system-ui,sans-serif" font-size="18" fill="#ae95ff" letter-spacing="4">CREATIVE &amp; TECHNICAL PROJECTS</text><text x="1120" y="756" font-family="system-ui,sans-serif" font-size="18" fill="#90a8c2" >14 / 40</text></svg>